# xmcd CD database file
#
# Track frame offsets:
#	183
#	15048
#	31983
#	43885
#	62983
#	76683
#	93348
#	106340
#	119508
#	132835
#	154585
#	168065
#	180820
#
# Disc length: 2588 seconds
#
# Revision: 0
# Processed by: cddbd v1.5.2PL0 Copyright (c) Steve Scherf et al.
# Submitted via: CDex 1.51
#
DISCID=8d0a1a0d
DTITLE=Dave Peabody - Dream of Mississippi
DYEAR=1991
DGENRE=Blues
TTITLE0=Dream of Mississippi
TTITLE1=Rambling on my Mind
TTITLE2=Jumper Hanging on the Line
TTITLE3=Delta Blues
TTITLE4=Street Walkin'
TTITLE5=Wind Howling Blues
TTITLE6=Old Jim Canan's
TTITLE7=Please Throw This Dog a Bone
TTITLE8=Mary, Ain't I Been One Good Man to You
TTITLE9=Mississippi Blues
TTITLE10=Mortgage Blues
TTITLE11=Take a Walk Around the Corner
TTITLE12=I'm Going Home
EXTD=YEAR: 1991
EXTT0=
EXTT1=
EXTT2=
EXTT3=
EXTT4=
EXTT5=
EXTT6=
EXTT7=
EXTT8=
EXTT9=
EXTT10=
EXTT11=
EXTT12=
PLAYORDER=
